dataset
version=1
nRows=19
nColumns=39
inDegrees=no
endheader
time	sternoclavicular_r2	sternoclavicular_r3	unrotscap_r3	unrotscap_r2	acromioclavicular_r2	acromioclavicular_r3	acromioclavicular_r1	unrothum_r1	unrothum_r3	unrothum_r2	elv_angle	shoulder_elv	shoulder1_r2	shoulder_rot	elbow_flexion	pro_sup	deviation	flexion	cmc_abduction	cmc_flexion	mp_flexion	ip_flexion	mcp2_flexion	mcp2_abduction	pm2_flexion	md2_flexion	mcp3_flexion	mcp3_abduction	pm3_flexion	md3_flexion	mcp4_flexion	mcp4_abduction	pm4_flexion	md4_flexion	mcp5_flexion	mcp5_abduction	pm5_flexion	md5_flexion
7.970000	-0.048983	-0.518100	0.294477	0.159173	0.118458	0.199849	-0.226715	0.091792	-0.099539	0.130389	0.103180	0.027437	0.146525	0.146525	0.971401	1.518156	0.000000	0.000000	0.000000	0.000000	0.000000	0.000000	0.000000	0.000000	0.000000	0.000000	0.000000	0.000000	0.000000	0.000000	0.000000	0.000000	0.000000	0.000000	0.000000	0.000000	0.000000	0.000000
7.975000	-0.049012	-0.518153	0.294570	0.159296	0.118572	0.199906	-0.226780	0.091863	-0.099518	0.130495	0.103297	0.027437	0.146525	0.146525	0.970311	1.520588	0.000000	0.000000	0.000000	0.000000	0.000000	0.000000	0.000000	0.000000	0.000000	0.000000	0.000000	0.000000	0.000000	0.000000	0.000000	0.000000	0.000000	0.000000	0.000000	0.000000	0.000000	0.000000
7.980000	-0.049042	-0.518208	0.294667	0.159420	0.118687	0.199961	-0.226849	0.091935	-0.099498	0.130603	0.103416	0.027437	0.146525	0.146525	0.969217	1.523047	0.000000	0.000000	0.000000	0.000000	0.000000	0.000000	0.000000	0.000000	0.000000	0.000000	0.000000	0.000000	0.000000	0.000000	0.000000	0.000000	0.000000	0.000000	0.000000	0.000000	0.000000	0.000000
7.985000	-0.049073	-0.518265	0.294766	0.159547	0.118804	0.200016	-0.226921	0.092008	-0.099481	0.130713	0.103536	0.027437	0.146525	0.146525	0.968118	1.525533	0.000000	0.000000	0.000000	0.000000	0.000000	0.000000	0.000000	0.000000	0.000000	0.000000	0.000000	0.000000	0.000000	0.000000	0.000000	0.000000	0.000000	0.000000	0.000000	0.000000	0.000000	0.000000
7.990000	-0.049106	-0.518323	0.294868	0.159675	0.118923	0.200070	-0.226996	0.092081	-0.099465	0.130826	0.103658	0.027437	0.146525	0.146525	0.967013	1.528046	0.000000	0.000000	0.000000	0.000000	0.000000	0.000000	0.000000	0.000000	0.000000	0.000000	0.000000	0.000000	0.000000	0.000000	0.000000	0.000000	0.000000	0.000000	0.000000	0.000000	0.000000	0.000000
7.995000	-0.049139	-0.518383	0.294973	0.159806	0.119045	0.200124	-0.227075	0.092156	-0.099453	0.130941	0.103782	0.027437	0.146525	0.146525	0.965904	1.530588	0.000000	0.000000	0.000000	0.000000	0.000000	0.000000	0.000000	0.000000	0.000000	0.000000	0.000000	0.000000	0.000000	0.000000	0.000000	0.000000	0.000000	0.000000	0.000000	0.000000	0.000000	0.000000
8.000000	-0.049175	-0.518445	0.295082	0.159938	0.119168	0.200176	-0.227159	0.092232	-0.099443	0.131058	0.103907	0.027437	0.146525	0.146525	0.964789	1.533157	0.000000	0.000000	0.000000	0.000000	0.000000	0.000000	0.000000	0.000000	0.000000	0.000000	0.000000	0.000000	0.000000	0.000000	0.000000	0.000000	0.000000	0.000000	0.000000	0.000000	0.000000	0.000000
8.005000	-0.049211	-0.518508	0.295194	0.160072	0.119294	0.200229	-0.227245	0.092309	-0.099435	0.131178	0.104034	0.027437	0.146525	0.146525	0.963668	1.535755	0.000000	0.000000	0.000000	0.000000	0.000000	0.000000	0.000000	0.000000	0.000000	0.000000	0.000000	0.000000	0.000000	0.000000	0.000000	0.000000	0.000000	0.000000	0.000000	0.000000	0.000000	0.000000
8.010000	-0.049249	-0.518573	0.295309	0.160209	0.119422	0.200280	-0.227336	0.092387	-0.099430	0.131299	0.104162	0.027437	0.146525	0.146525	0.962542	1.538382	0.000000	0.000000	0.000000	0.000000	0.000000	0.000000	0.000000	0.000000	0.000000	0.000000	0.000000	0.000000	0.000000	0.000000	0.000000	0.000000	0.000000	0.000000	0.000000	0.000000	0.000000	0.000000
8.015000	-0.049288	-0.518640	0.295428	0.160347	0.119552	0.200331	-0.227431	0.092466	-0.099428	0.131423	0.104292	0.027437	0.146525	0.146525	0.961411	1.541038	0.000000	0.000000	0.000000	0.000000	0.000000	0.000000	0.000000	0.000000	0.000000	0.000000	0.000000	0.000000	0.000000	0.000000	0.000000	0.000000	0.000000	0.000000	0.000000	0.000000	0.000000	0.000000
8.020000	-0.049328	-0.518709	0.295550	0.160487	0.119684	0.200382	-0.227529	0.092547	-0.099428	0.131550	0.104423	0.027437	0.146525	0.146525	0.960274	1.543723	0.000000	0.000000	0.000000	0.000000	0.000000	0.000000	0.000000	0.000000	0.000000	0.000000	0.000000	0.000000	0.000000	0.000000	0.000000	0.000000	0.000000	0.000000	0.000000	0.000000	0.000000	0.000000
8.025000	-0.049370	-0.518779	0.295676	0.160630	0.119818	0.200432	-0.227632	0.092629	-0.099431	0.131678	0.104556	0.027437	0.146525	0.146525	0.959132	1.546438	0.000000	0.000000	0.000000	0.000000	0.000000	0.000000	0.000000	0.000000	0.000000	0.000000	0.000000	0.000000	0.000000	0.000000	0.000000	0.000000	0.000000	0.000000	0.000000	0.000000	0.000000	0.000000
8.030000	-0.049413	-0.518851	0.295805	0.160774	0.119954	0.200481	-0.227738	0.092712	-0.099437	0.131809	0.104691	0.027437	0.146525	0.146525	0.957985	1.549183	0.000000	0.000000	0.000000	0.000000	0.000000	0.000000	0.000000	0.000000	0.000000	0.000000	0.000000	0.000000	0.000000	0.000000	0.000000	0.000000	0.000000	0.000000	0.000000	0.000000	0.000000	0.000000
8.035000	-0.049457	-0.518925	0.295937	0.160920	0.120093	0.200530	-0.227848	0.092797	-0.099445	0.131942	0.104827	0.027437	0.146525	0.146525	0.956833	1.551958	0.000000	0.000000	0.000000	0.000000	0.000000	0.000000	0.000000	0.000000	0.000000	0.000000	0.000000	0.000000	0.000000	0.000000	0.000000	0.000000	0.000000	0.000000	0.000000	0.000000	0.000000	0.000000
8.040000	-0.049503	-0.519000	0.296073	0.161069	0.120233	0.200579	-0.227962	0.092883	-0.099456	0.132077	0.104964	0.027437	0.146525	0.146525	0.955677	1.554765	0.000000	0.000000	0.000000	0.000000	0.000000	0.000000	0.000000	0.000000	0.000000	0.000000	0.000000	0.000000	0.000000	0.000000	0.000000	0.000000	0.000000	0.000000	0.000000	0.000000	0.000000	0.000000
8.045000	-0.049549	-0.519077	0.296212	0.161218	0.120375	0.200627	-0.228080	0.092970	-0.099469	0.132214	0.105102	0.027437	0.146525	0.146525	0.954517	1.557602	0.000000	0.000000	0.000000	0.000000	0.000000	0.000000	0.000000	0.000000	0.000000	0.000000	0.000000	0.000000	0.000000	0.000000	0.000000	0.000000	0.000000	0.000000	0.000000	0.000000	0.000000	0.000000
8.050000	-0.049597	-0.519156	0.296355	0.161370	0.120519	0.200675	-0.228201	0.093059	-0.099485	0.132352	0.105242	0.027437	0.146525	0.146525	0.953353	1.560470	0.000000	0.000000	0.000000	0.000000	0.000000	0.000000	0.000000	0.000000	0.000000	0.000000	0.000000	0.000000	0.000000	0.000000	0.000000	0.000000	0.000000	0.000000	0.000000	0.000000	0.000000	0.000000
8.055000	-0.049646	-0.519236	0.296500	0.161523	0.120664	0.200723	-0.228326	0.093149	-0.099503	0.132492	0.105382	0.027437	0.146525	0.146525	0.952186	1.563370	0.000000	0.000000	0.000000	0.000000	0.000000	0.000000	0.000000	0.000000	0.000000	0.000000	0.000000	0.000000	0.000000	0.000000	0.000000	0.000000	0.000000	0.000000	0.000000	0.000000	0.000000	0.000000
8.060000	-0.049696	-0.519317	0.296649	0.161678	0.120811	0.200771	-0.228454	0.093241	-0.099523	0.132634	0.105524	0.027437	0.146525	0.146525	0.951017	1.566303	0.000000	0.000000	0.000000	0.000000	0.000000	0.000000	0.000000	0.000000	0.000000	0.000000	0.000000	0.000000	0.000000	0.000000	0.000000	0.000000	0.000000	0.000000	0.000000	0.000000	0.000000	0.000000
